<svg id="Layer_1" data-name="Layer 1" xmlns="http://www.w3.org/2000/svg" viewBox="0 0 1000 1000"><defs><style>.cls-1,.cls-2{fill:#fff;}.cls-2{stroke:#000;stroke-miterlimit:10;}</style></defs><title>owl</title><path d="M311.37,53.78c19.07,2.7,38.09,5.87,57.23,8,20.09,2.2,40.54,2,60.39,5.37,22.37,3.83,42.31,13.58,54.62,35.69,19.09-27.12,46.29-35.26,76.23-37.48,31.46-2.33,62.93-4.51,97.63-7l-20.15,46.12c32,29.95,48.18,69.33,50.88,113.52,2.63,43.1,5,87-27.87,122.61,47.75,65.3,50.64,139.72,42.23,215.17-3.91,35.09-14.72,69.53-23.93,103.85-2.48,9.26-9.59,18-16.48,25.05-3.11,3.2-12.49,4.47-16.33,2.15-46-27.7-107.32-21.28-147.69,16.39-46.25-39.1-96.35-43.16-148.86-14.48-10.45,5.71-15.8,2.49-22.49-4.06C292,650.55,275.86,606.79,267,560.81c-14.8-76.82,10.34-146.14,45.24-215.12-26.51-21.2-41.59-51.16-46.24-86.6-6.92-52.72,10.6-98.66,41.84-139.42,10.19-13.29,14.67-23.39,6.66-38.8-4.21-8.09-4.91-18-7.2-27.1ZM338.21,85.4l-2.34,3.25c10.65,4.6,21.1,12.6,32,13.22,52.38,3,92.08,23.41,112.37,74.23.37.93,2.23,1.28,4.5,2.48,16.72-51.78,54.37-73.88,106.84-77.12,11.71-.72,22.88-10.1,34.3-15.49l-2.62-4.74c-51.41,2.72-105.73-2.77-140,50.1-26.06-35-61.49-47.47-103.09-46C366.19,85.82,352.19,85.4,338.21,85.4ZM482.45,376.82c8.49-24.7,16-43.81,21.2-63.54,1.35-5.15-3.74-16.87-7.35-17.53a85.53,85.53,0,0,0-34.06,1.11c-3.05.71-6.64,12.8-4.91,17.95C463.87,334.18,472.51,352.85,482.45,376.82Z"/><path d="M790,946.22c-18.23-8.39-37.1-15.65-54.59-25.37-66.28-36.83-69.86-94.58-9.9-141.58,8.77-6.87,15.1-16.86,20.76-27.28-28.77-1.61-54.08-1.86-73.24,24-16,21.62-32.58,40.43-37.64,69.13-8,45.47-42.88,67.38-85.13,75.67-26.83,5.27-54.78,4.87-82.66,7.05,4.16-64.67,37.27-112.7,85.52-125.11,12.21-3.14,25.79-5.31,38-3.29,22.48,3.72,37.36-4.87,50-22,6.35-8.6,14.19-16.11,23.14-26.1H645l11.86-41c20.91,0,41-.35,61.11.12,14.47.34,23.37-4.13,22.8-20.42a56.64,56.64,0,0,1,2.18-16c26.4-101,55.55-111,148.41-121,22.39-2.42,45.27-.36,68-.36-3.39,82-61.85,134.62-138.14,128.45-25.48-2.06-33.91,3.31-38.17,25.75,68.86-7.54,125.92,22.21,181.45,56.72v4.06c-3.91,4.5-7.87,9-11.72,13.49-21.53,25.37-47.12,28.61-69.44,4.19-22.73-24.88-51-31.25-81.62-33.78-7.23-.6-20.76,1.13-21.08,3.31-1.67,11.28-.75,23.17,1,34.6.57,3.82,6.2,6.81,9.37,10.32,25.68,28.42,33.67,61,21.85,97.62-5.34,16.53-12.4,32.5-18.68,48.73ZM933.18,574.34c-64-16.2-142.2,21-158,78.15,17-9.94,34.54-19.94,48-33.84,21.82-22.5,36.86-27.87,67.83-17.49-7.17,26.34-25.76,42.27-46.85,35.38-21.28-6.95-28.61,5.73-39.36,19C888.12,658.25,927.86,620.79,933.18,574.34ZM490.95,899.72C559.21,912,613.47,883,616.74,833.83c-32,10.61-49.74,53.71-93.95,43.67,9.73-23.2,20.19-38.82,48.14-37.55,12,.55,24.56-13.21,36.87-20.46C544.51,806.35,492.27,845.52,490.95,899.72Zm288,23.71c34-63.2,14-115.56-23.49-126.46,1.63,12.78-.93,27.67,5.33,34.82,14.9,17,13.62,34.46,11.9,54.48-33.83-16-38.32-26.54-30.62-59.08,2.59-10.92.41-23,.41-36.11-34.37,21.17-42.2,49.66-19.83,77.87C738.3,888.66,758.95,904.38,779,923.43Z"/><path d="M35.53,621.7c32.7,2.17,65.41,4.17,98.09,6.55,24.05,1.76,48.53,1.83,72,6.71,21,4.37,37.88,17.71,45.51,39.45,8.87,25.27,24.79,39,53.26,35.62,12.52-1.5,25.36-.25,36.56-.25l13.16,49.13-35.25-1.85,8.1,42.55c49.28,1.34,75.54,23.25,73.16,61.56-1.62,26.15-5.21,52.17-8,79.18-24.92-3.67-50.25-6-74.93-11.32-52.57-11.37-68.55-56.48-33.45-99.58,16.11-19.78,18.24-37.41,9.29-58.55-23.54,14.67-47.19,29.26-70.62,44.2-2.53,1.61-4.11,5.1-5.52,8-30.12,62.13-56.46,77.19-124.39,70.39-10.64-1.07-21.13-3.61-34.07-5.9C67.48,846,78.06,806.39,113,779.7c27.62-21.11,57.82-16.72,85.57-.23,14,8.3,24.63,7.58,36.58-.9,16.18-11.49,32.29-23.08,48.43-34.63l-2.3-6.79c-22.13,1.95-45.45,0-66.17,6.5C125,771.72,61.62,737,39.79,645.15,38.56,640,37,634.92,35.53,629.81Q35.53,625.75,35.53,621.7Zm198.07,84.25,2.81-5.21c-19.07-33.73-45.18-53.51-70.88-53.55-36.07-.05-72.13,0-109.64,0,32.15,88.28,101.89,118.12,159.89,67-17.7-1.19-33.19-6.27-45.85-2.31-36,11.28-55.6,3.86-71.45-32.64,20.48-8.39,41.09-13.48,62.71-4.3C185.35,685.17,209.46,695.59,233.59,705.94ZM312.1,832.28l-4.67-.37c-4.14,8.94-9.06,17.6-12.28,26.85-12,34.6-1.07,53,34.54,59.24q24.57,4.28,49.19,8.52c6.49-69.78-5.17-94.37-52.15-98.84,3.74,13.63,3.65,32.36,10.73,35.65,22.6,10.49,22.41,29,26.42,48-41.1-2.78-47.39-10.72-45.4-50.47C319,851.5,314.37,841.83,312.1,832.28Zm-117.46-10c-10.63,4.61-25.78,6.29-31,14.39-14.84,22.91-36.4,21.56-58.63,24.5,6.23-33.43,21.08-44.21,50.77-44.7,13-.21,25.79-8.26,38.68-12.74-45.31-27.74-102.06-7-108.3,68.41C139.6,878.24,180.16,861.55,194.64,822.25Z"/><path d="M601.77,745.89c-18.74,22.93-24.21,23.85-41.8,8.33-9.58,3.3-20.42,10.9-26.36,8.1-7.28-3.43-11-15.32-15.21-24-2-4-3-9.57-1.94-13.82,2.57-10.56,3.84-23.88,10.9-30.09,5.26-4.62,18.77.14,31.14.88,16.86-20,25.75-20.16,40.08-1.07,9.66-3.28,20.43-10.7,26.07-7.88,7,3.51,12,15,13.76,23.93s-.61,18.82-3.18,27.73C629.46,758,617.78,760.42,601.77,745.89Z"/><path d="M438.89,697c14.21-8.72,25.91-5.24,33.9,8.64,8.63,15,4,43.69-9.48,49.43-7.24,3.08-17.8-1.64-32.32-3.57-13.92,10.22-21.21,9.26-34.42-8-6.67,4-14.41,12.16-19.17,10.69-6.93-2.14-14.32-10.32-16.79-17.54a78.31,78.31,0,0,1-3.72-33.76c2.54-20.79,15.16-25.33,32.65-14,2.56,1.66,7.9,2.35,10,.82C421.06,674.44,423.94,674.8,438.89,697Z"/><path d="M505.28,713.48l6.4,46.5H477.35l11.24-47.77Z"/><path class="cls-1" d="M338.21,85.4c14,0,28,.41,41.94-.08,41.6-1.46,77,11,103.09,46,34.26-52.87,88.58-47.38,140-50.1L625.84,86c-11.42,5.39-22.59,14.77-34.3,15.49-52.47,3.23-90.12,25.34-106.84,77.12-2.27-1.21-4.13-1.55-4.5-2.48-20.28-50.83-60-71.27-112.37-74.23-10.87-.62-21.32-8.62-32-13.22Z"/><path class="cls-1" d="M482.45,376.82c-9.94-24-18.58-42.64-25.12-62-1.74-5.15,1.85-17.24,4.91-17.95a85.53,85.53,0,0,1,34.06-1.11c3.61.66,8.7,12.38,7.35,17.53C498.47,333,490.94,352.12,482.45,376.82Z"/><path class="cls-1" d="M933.18,574.34c-5.32,46.45-45.06,83.91-128.35,81.24,10.75-13.31,18.08-26,39.36-19,21.09,6.88,39.68-9,46.85-35.38-31-10.38-46-5-67.83,17.49-13.48,13.9-31,23.9-48,33.84C791,595.33,869.16,558.15,933.18,574.34Z"/><path class="cls-1" d="M490.95,899.72c1.32-54.2,53.56-93.38,116.86-80.23-12.31,7.26-24.92,21-36.87,20.46-28-1.28-38.42,14.34-48.14,37.55,44.21,10,62-33.06,93.95-43.67C613.47,883,559.21,912,490.95,899.72Z"/><path class="cls-1" d="M779,923.43c-20-19-40.68-34.77-56.3-54.47-22.36-28.21-14.53-56.7,19.83-77.87,0,13.14,2.18,25.19-.41,36.11-7.71,32.54-3.21,43.1,30.62,59.08,1.72-20,3-37.49-11.9-54.48-6.27-7.15-3.7-22-5.33-34.82C793,807.87,813,860.23,779,923.43Z"/><path class="cls-1" d="M233.59,705.94c-24.13-10.35-48.24-20.77-72.41-31-21.61-9.18-42.23-4.08-62.71,4.3,15.85,36.5,35.43,43.92,71.45,32.64,12.66-4,28.15,1.12,45.85,2.31-58,51.13-127.74,21.29-159.89-67,37.51,0,73.58,0,109.64,0,25.7,0,51.81,19.82,70.88,53.55Z"/><path class="cls-1" d="M312.1,832.28c2.26,9.55,6.86,19.22,6.39,28.63-2,39.75,4.3,47.7,45.4,50.47-4-19-3.82-37.55-26.42-48-7.08-3.29-7-22-10.73-35.65,47,4.47,58.64,29.06,52.15,98.84q-24.65-4.27-49.19-8.52c-35.61-6.21-46.55-24.64-34.54-59.24,3.21-9.26,8.14-17.92,12.28-26.85Z"/><path class="cls-1" d="M194.64,822.25c-14.48,39.29-55,56-108.51,49.86,6.24-75.46,63-96.15,108.3-68.41-12.89,4.49-25.72,12.53-38.68,12.74-29.7.49-44.54,11.27-50.77,44.7,22.23-2.95,43.79-1.59,58.63-24.5C168.86,828.55,184,826.87,194.64,822.25Z"/><ellipse class="cls-1" cx="579.82" cy="235.18" rx="78.63" ry="98.09"/><ellipse cx="572.94" cy="250.89" rx="31.29" ry="39.04"/><ellipse class="cls-1" cx="572.52" cy="250.89" rx="14.55" ry="18.16"/><ellipse cx="572.52" cy="254.16" rx="6.91" ry="8.62"/><ellipse class="cls-1" cx="375.62" cy="235.18" rx="78.63" ry="98.09"/><ellipse cx="382.5" cy="250.89" rx="31.29" ry="39.04"/><ellipse class="cls-1" cx="382.91" cy="250.89" rx="14.55" ry="18.16"/><ellipse cx="382.91" cy="254.16" rx="6.91" ry="8.62"/><path class="cls-2" d="M341.29,479c1.38-.63,2.92-2.28,4-3.14a68,68,0,0,0,8.13-7.78,54.3,54.3,0,0,0,12.21-24,65.25,65.25,0,0,0,1.51-14.26,67.07,67.07,0,0,0-1-11.9,54.28,54.28,0,0,0-11.65-25.23,59,59,0,0,0-8.17-8c-1.47-1.19-2.77-2.45-4.14-3.7-2.44-2.22-3.94.32-6.07,1.89-15.16,11.17-23.19,28.16-23.19,46.94,0,19,8.23,35.29,23,46.94,1.32,1,3,2.87,4.88,2.4A3.16,3.16,0,0,0,341.29,479Z"/><path class="cls-2" d="M400.46,479c1.38-.63,2.92-2.28,4-3.14a68,68,0,0,0,8.13-7.78,54.3,54.3,0,0,0,12.21-24,65.25,65.25,0,0,0,1.51-14.26,67.07,67.07,0,0,0-1-11.9,54.28,54.28,0,0,0-11.65-25.23,59,59,0,0,0-8.17-8c-1.47-1.19-2.77-2.45-4.14-3.7-2.44-2.22-3.94.32-6.07,1.89C380.07,394.11,372,411.1,372,429.87c0,19,8.23,35.29,23,46.94,1.32,1,3,2.87,4.88,2.4A3.16,3.16,0,0,0,400.46,479Z"/><path class="cls-2" d="M459.62,479c1.38-.63,2.92-2.28,4-3.14a68,68,0,0,0,8.13-7.78,54.3,54.3,0,0,0,12.21-24,65.25,65.25,0,0,0,1.51-14.26,67.07,67.07,0,0,0-1-11.9,54.28,54.28,0,0,0-11.65-25.23,59,59,0,0,0-8.17-8c-1.47-1.19-2.77-2.45-4.14-3.7-2.44-2.22-3.94.32-6.07,1.89-15.16,11.17-23.19,28.16-23.19,46.94,0,19,8.23,35.29,23,46.94,1.32,1,3,2.87,4.88,2.4A3.16,3.16,0,0,0,459.62,479Z"/><path class="cls-2" d="M518.79,479c1.38-.63,2.92-2.28,4-3.14a68,68,0,0,0,8.13-7.78,54.3,54.3,0,0,0,12.21-24,65.25,65.25,0,0,0,1.51-14.26,67.07,67.07,0,0,0-1-11.9,54.28,54.28,0,0,0-11.65-25.23,59,59,0,0,0-8.17-8c-1.47-1.19-2.77-2.45-4.14-3.7-2.44-2.22-3.94.32-6.07,1.89-15.16,11.17-23.19,28.16-23.19,46.94,0,19,8.23,35.29,23,46.94,1.32,1,3,2.87,4.88,2.4A3.16,3.16,0,0,0,518.79,479Z"/><path class="cls-2" d="M578,479c1.38-.63,2.92-2.28,4-3.14a68,68,0,0,0,8.13-7.78,54.3,54.3,0,0,0,12.21-24,65.25,65.25,0,0,0,1.51-14.26,67.07,67.07,0,0,0-1-11.9,54.28,54.28,0,0,0-11.65-25.23,59,59,0,0,0-8.17-8c-1.47-1.19-2.77-2.45-4.14-3.7-2.44-2.22-3.94.32-6.07,1.89-15.16,11.17-23.19,28.16-23.19,46.94,0,19,8.23,35.29,23,46.94,1.32,1,3,2.87,4.88,2.4A3.16,3.16,0,0,0,578,479Z"/><path class="cls-2" d="M637.12,479c1.38-.63,2.92-2.28,4-3.14a68,68,0,0,0,8.13-7.78,54.3,54.3,0,0,0,12.21-24A65.25,65.25,0,0,0,663,429.87a67.07,67.07,0,0,0-1-11.9,54.28,54.28,0,0,0-11.65-25.23,59,59,0,0,0-8.17-8c-1.47-1.19-2.77-2.45-4.14-3.7-2.44-2.22-3.94.32-6.07,1.89-15.16,11.17-23.19,28.16-23.19,46.94,0,19,8.23,35.29,23,46.94,1.32,1,3,2.87,4.88,2.4A3.16,3.16,0,0,0,637.12,479Z"/><path class="cls-2" d="M369.43,564.08c1.38-.63,2.92-2.28,4-3.14a68,68,0,0,0,8.13-7.78,54.3,54.3,0,0,0,12.21-24,65.25,65.25,0,0,0,1.51-14.26,67.07,67.07,0,0,0-1-11.9,54.28,54.28,0,0,0-11.65-25.23,59,59,0,0,0-8.17-8c-1.47-1.19-2.77-2.45-4.14-3.7-2.44-2.22-3.94.32-6.07,1.89C349,479.17,341,496.16,341,514.94c0,19,8.23,35.29,23,46.94,1.32,1,3,2.87,4.88,2.4A3.16,3.16,0,0,0,369.43,564.08Z"/><path class="cls-2" d="M428.59,564.08c1.38-.63,2.92-2.28,4-3.14a68,68,0,0,0,8.13-7.78,54.3,54.3,0,0,0,12.21-24,65.25,65.25,0,0,0,1.51-14.26,67.07,67.07,0,0,0-1-11.9,54.28,54.28,0,0,0-11.65-25.23,59,59,0,0,0-8.17-8c-1.47-1.19-2.77-2.45-4.14-3.7-2.44-2.22-3.94.32-6.07,1.89-15.16,11.17-23.19,28.16-23.19,46.94,0,19,8.23,35.29,23,46.94,1.32,1,3,2.87,4.88,2.4A3.16,3.16,0,0,0,428.59,564.08Z"/><path class="cls-2" d="M487.76,564.08c1.38-.63,2.92-2.28,4-3.14a68,68,0,0,0,8.13-7.78,54.3,54.3,0,0,0,12.21-24,65.25,65.25,0,0,0,1.51-14.26,67.07,67.07,0,0,0-1-11.9,54.28,54.28,0,0,0-11.65-25.23,59,59,0,0,0-8.17-8c-1.47-1.19-2.77-2.45-4.14-3.7-2.44-2.22-3.94.32-6.07,1.89-15.16,11.17-23.19,28.16-23.19,46.94,0,19,8.23,35.29,23,46.94,1.32,1,3,2.87,4.88,2.4A3.16,3.16,0,0,0,487.76,564.08Z"/><path class="cls-2" d="M546.92,564.08c1.38-.63,2.92-2.28,4-3.14a68,68,0,0,0,8.13-7.78,54.3,54.3,0,0,0,12.21-24,65.25,65.25,0,0,0,1.51-14.26,67.07,67.07,0,0,0-1-11.9,54.28,54.28,0,0,0-11.65-25.23,59,59,0,0,0-8.17-8c-1.47-1.19-2.77-2.45-4.14-3.7-2.44-2.22-3.94.32-6.07,1.89-15.16,11.17-23.19,28.16-23.19,46.94,0,19,8.23,35.29,23,46.94,1.32,1,3,2.87,4.88,2.4A3.16,3.16,0,0,0,546.92,564.08Z"/><path class="cls-2" d="M606.09,564.08c1.38-.63,2.92-2.28,4-3.14a68,68,0,0,0,8.13-7.78,54.3,54.3,0,0,0,12.21-24,65.25,65.25,0,0,0,1.51-14.26,67.07,67.07,0,0,0-1-11.9,54.28,54.28,0,0,0-11.65-25.23,59,59,0,0,0-8.17-8c-1.47-1.19-2.77-2.45-4.14-3.7-2.44-2.22-3.94.32-6.07,1.89-15.16,11.17-23.19,28.16-23.19,46.94,0,19,8.23,35.29,23,46.94,1.32,1,3,2.87,4.88,2.4A3.16,3.16,0,0,0,606.09,564.08Z"/><path class="cls-2" d="M339.84,646.89c1.38-.63,2.92-2.28,4-3.14A68,68,0,0,0,352,636a54.3,54.3,0,0,0,12.21-24,65.25,65.25,0,0,0,1.51-14.26,67.07,67.07,0,0,0-1-11.9A54.28,54.28,0,0,0,353,560.61a59,59,0,0,0-8.17-8c-1.47-1.19-2.77-2.45-4.14-3.7-2.44-2.22-3.94.32-6.07,1.89C319.46,562,311.42,579,311.42,597.74c0,19,8.23,35.29,23,46.94,1.32,1,3,2.87,4.88,2.4A3.16,3.16,0,0,0,339.84,646.89Z"/><path class="cls-2" d="M399,646.89c1.38-.63,2.92-2.28,4-3.14a68,68,0,0,0,8.13-7.78,54.3,54.3,0,0,0,12.21-24,65.25,65.25,0,0,0,1.51-14.26,67.07,67.07,0,0,0-1-11.9,54.28,54.28,0,0,0-11.65-25.23,59,59,0,0,0-8.17-8c-1.47-1.19-2.77-2.45-4.14-3.7-2.44-2.22-3.94.32-6.07,1.89C378.63,562,370.59,579,370.59,597.74c0,19,8.23,35.29,23,46.94,1.32,1,3,2.87,4.88,2.4A3.16,3.16,0,0,0,399,646.89Z"/><path class="cls-2" d="M458.17,646.89c1.38-.63,2.92-2.28,4-3.14A68,68,0,0,0,470.3,636a54.3,54.3,0,0,0,12.21-24A65.25,65.25,0,0,0,484,597.74a67.07,67.07,0,0,0-1-11.9,54.28,54.28,0,0,0-11.65-25.23,59,59,0,0,0-8.17-8c-1.47-1.19-2.77-2.45-4.14-3.7-2.44-2.22-3.94.32-6.07,1.89C437.79,562,429.75,579,429.75,597.74c0,19,8.23,35.29,23,46.94,1.32,1,3,2.87,4.88,2.4A3.16,3.16,0,0,0,458.17,646.89Z"/><path class="cls-2" d="M517.34,646.89c1.38-.63,2.92-2.28,4-3.14a68,68,0,0,0,8.13-7.78,54.3,54.3,0,0,0,12.21-24,65.25,65.25,0,0,0,1.51-14.26,67.07,67.07,0,0,0-1-11.9,54.28,54.28,0,0,0-11.65-25.23,59,59,0,0,0-8.17-8c-1.47-1.19-2.77-2.45-4.14-3.7-2.44-2.22-3.94.32-6.07,1.89C497,562,488.92,579,488.92,597.74c0,19,8.23,35.29,23,46.94,1.32,1,3,2.87,4.88,2.4A3.16,3.16,0,0,0,517.34,646.89Z"/><path class="cls-2" d="M380.13,743.39a11.48,11.48,0,0,0,2-1.6,34.55,34.55,0,0,0,4.14-4,27.6,27.6,0,0,0,6.2-12.18,33.17,33.17,0,0,0,.77-7.25,34.09,34.09,0,0,0-.52-6,27.59,27.59,0,0,0-5.92-12.82,30,30,0,0,0-4.16-4.07c-.75-.61-1.41-1.25-2.1-1.88-1.24-1.13-2,.16-3.09,1a29,29,0,0,0-11.79,23.86,29.65,29.65,0,0,0,11.7,23.86c.67.53,1.54,1.46,2.48,1.22Z"/><path class="cls-2" d="M417.44,747.44a11.48,11.48,0,0,0,2-1.6,34.55,34.55,0,0,0,4.14-4,27.6,27.6,0,0,0,6.2-12.18,33.17,33.17,0,0,0,.77-7.25,34.09,34.09,0,0,0-.52-6,27.59,27.59,0,0,0-5.92-12.82,30,30,0,0,0-4.16-4.07c-.75-.61-1.41-1.25-2.1-1.88-1.24-1.13-2,.16-3.09,1A29,29,0,0,0,403,722.46a29.65,29.65,0,0,0,11.7,23.86c.67.53,1.54,1.46,2.48,1.22Z"/><path class="cls-2" d="M455.08,751.39a11.48,11.48,0,0,0,2-1.6,34.55,34.55,0,0,0,4.14-4,27.6,27.6,0,0,0,6.2-12.18,33.17,33.17,0,0,0,.77-7.25,34.09,34.09,0,0,0-.52-6,27.59,27.59,0,0,0-5.92-12.82,30,30,0,0,0-4.16-4.07c-.75-.61-1.41-1.25-2.1-1.88-1.24-1.13-2,.16-3.09,1a29,29,0,0,0-11.79,23.86,29.65,29.65,0,0,0,11.7,23.86c.67.53,1.54,1.46,2.48,1.22Z"/><path class="cls-2" d="M540.71,753.46a11.48,11.48,0,0,0,2-1.6,34.55,34.55,0,0,0,4.14-4,27.6,27.6,0,0,0,6.2-12.18,33.17,33.17,0,0,0,.77-7.25,34.09,34.09,0,0,0-.52-6,27.59,27.59,0,0,0-5.92-12.82,30,30,0,0,0-4.16-4.07c-.75-.61-1.41-1.25-2.1-1.88-1.24-1.13-2,.16-3.09,1a29,29,0,0,0-11.79,23.86A29.65,29.65,0,0,0,538,752.34c.67.53,1.54,1.46,2.48,1.22Z"/><path class="cls-2" d="M578.18,747.44a11.48,11.48,0,0,0,2-1.6,34.55,34.55,0,0,0,4.14-4,27.6,27.6,0,0,0,6.2-12.18,33.17,33.17,0,0,0,.77-7.25,34.09,34.09,0,0,0-.52-6,27.59,27.59,0,0,0-5.92-12.82,30,30,0,0,0-4.16-4.07c-.75-.61-1.41-1.25-2.1-1.88-1.24-1.13-2,.16-3.09,1a29,29,0,0,0-11.79,23.86,29.65,29.65,0,0,0,11.7,23.86c.67.53,1.54,1.46,2.48,1.22Z"/><path class="cls-2" d="M617.4,743.69a11.48,11.48,0,0,0,2-1.6,34.55,34.55,0,0,0,4.14-4,27.6,27.6,0,0,0,6.2-12.18,33.17,33.17,0,0,0,.77-7.25,34.09,34.09,0,0,0-.52-6,27.59,27.59,0,0,0-5.92-12.82,30,30,0,0,0-4.16-4.07c-.75-.61-1.41-1.25-2.1-1.88-1.24-1.13-2,.16-3.09,1A29,29,0,0,0,603,718.71a29.65,29.65,0,0,0,11.7,23.86c.67.53,1.54,1.46,2.48,1.22Z"/><path class="cls-2" d="M576.51,646.89c1.38-.63,2.92-2.28,4-3.14a68,68,0,0,0,8.13-7.78,54.3,54.3,0,0,0,12.21-24,65.25,65.25,0,0,0,1.51-14.26,67.07,67.07,0,0,0-1-11.9,54.28,54.28,0,0,0-11.65-25.23,59,59,0,0,0-8.17-8c-1.47-1.19-2.77-2.45-4.14-3.7-2.44-2.22-3.94.32-6.07,1.89C556.12,562,548.08,579,548.08,597.74c0,19,8.23,35.29,23,46.94,1.32,1,3,2.87,4.88,2.4A3.16,3.16,0,0,0,576.51,646.89Z"/><path class="cls-2" d="M635.67,646.89c1.38-.63,2.92-2.28,4-3.14a68,68,0,0,0,8.13-7.78A54.3,54.3,0,0,0,660,612a65.25,65.25,0,0,0,1.51-14.26,67.07,67.07,0,0,0-1-11.9,54.28,54.28,0,0,0-11.65-25.23,59,59,0,0,0-8.17-8c-1.47-1.19-2.77-2.45-4.14-3.7-2.44-2.22-3.94.32-6.07,1.89C615.29,562,607.25,579,607.25,597.74c0,19,8.23,35.29,23,46.94,1.32,1,3,2.87,4.88,2.4A3.16,3.16,0,0,0,635.67,646.89Z"/></svg>